HIERARCHY
ROOT Hips
{
  OFFSET 42.9163 95.8663 21.8196
  CHANNELS 6 Xposition Yposition Zposition Zrotation Xrotation Yrotation
  JOINT spine
  {
    OFFSET 0 8.13249 0.467659
    CHANNELS 3 Zrotation Xrotation Yrotation
    JOINT spine1
    {
      OFFSET 0 10.3498 0
      CHANNELS 3 Zrotation Xrotation Yrotation
      JOINT spine2
      {
        OFFSET 0 9.91699 0
        CHANNELS 3 Zrotation Xrotation Yrotation
        JOINT Neck
        {
          OFFSET 0 25.461 1.2139
          CHANNELS 3 Zrotation Xrotation Yrotation
          JOINT Head
          {
            OFFSET 0 7.69245 0
            CHANNELS 3 Zrotation Xrotation Yrotation
            End Site
            {
              OFFSET 0 18.62 -6.14063
            }
          }
        }
        JOINT RightShoulder
        {
          OFFSET -4.17575 10.7096 -0.581445
          CHANNELS 3 Zrotation Xrotation Yrotation
          JOINT RightArm
          {
            OFFSET 0 14.0466 0
            CHANNELS 3 Zrotation Xrotation Yrotation
            JOINT RightArmRoll
            {
              OFFSET 0 7.09099 0
              CHANNELS 3 Zrotation Xrotation Yrotation
              JOINT RightForeArm
              {
                OFFSET 0 20.6535 0
                CHANNELS 3 Zrotation Xrotation Yrotation
                JOINT RightForeArmRoll
                {
                  OFFSET 0 7.95718 0
                  CHANNELS 3 Zrotation Xrotation Yrotation
                  JOINT RightHand
                  {
                    OFFSET 0 15.9683 0
                    CHANNELS 3 Zrotation Xrotation Yrotation
                    End Site
                    {
                      OFFSET 0 0 0
                    }
                  }
                }
              }
            }
          }
        }
        JOINT LeftShoulder
        {
          OFFSET 4.17575 10.7096 -0.581445
          CHANNELS 3 Zrotation Xrotation Yrotation
          JOINT LeftArm
          {
            OFFSET 0 14.0466 0
            CHANNELS 3 Zrotation Xrotation Yrotation
            JOINT LeftArmRoll
            {
              OFFSET 0 7.09099 0
              CHANNELS 3 Zrotation Xrotation Yrotation
              JOINT LeftForeArm
              {
                OFFSET 0 20.6535 0
                CHANNELS 3 Zrotation Xrotation Yrotation
                JOINT LeftForeArmRoll
                {
                  OFFSET 0 7.95718 0
                  CHANNELS 3 Zrotation Xrotation Yrotation
                  JOINT LeftHand
                  {
                    OFFSET 0 15.9683 0
                    CHANNELS 3 Zrotation Xrotation Yrotation
                    End Site
                    {
                      OFFSET 0 0 0
                    }
                  }
                }
              }
            }
          }
        }
      }
    }
  }
  JOINT RightUpLeg
  {
    OFFSET -7.20834 -1.32182 -1.10884
    CHANNELS 3 Zrotation Xrotation Yrotation
    JOINT RightUpLegRoll
    {
      OFFSET 0 18.7238 0
      CHANNELS 3 Zrotation Xrotation Yrotation
      JOINT RightLeg
      {
        OFFSET 0 -23.1866 0
        CHANNELS 3 Zrotation Xrotation Yrotation
        JOINT RightLegRoll
        {
          OFFSET 0 23.2624 0
          CHANNELS 3 Zrotation Xrotation Yrotation
          JOINT RightFoot
          {
            OFFSET 0 19.3621 0
            CHANNELS 3 Zrotation Xrotation Yrotation
            JOINT RightToeBase
            {
              OFFSET 0 16.1857 0
              CHANNELS 3 Zrotation Xrotation Yrotation
              End Site
              {
                OFFSET 0.00686052 7.83862 -0.903522
              }
            }
          }
        }
      }
    }
  }
  JOINT LeftUpLeg
  {
    OFFSET 7.20834 -1.32182 -1.10884
    CHANNELS 3 Zrotation Xrotation Yrotation
    JOINT LeftUpLegRoll
    {
      OFFSET 0 18.7239 0
      CHANNELS 3 Zrotation Xrotation Yrotation
      JOINT LeftLeg
      {
        OFFSET 0 23.1865 0
        CHANNELS 3 Zrotation Xrotation Yrotation
        JOINT LeftLegRoll
        {
          OFFSET 0 23.4775 0
          CHANNELS 3 Zrotation Xrotation Yrotation
          JOINT LeftFoot
          {
            OFFSET 0 19.147 0
            CHANNELS 3 Zrotation Xrotation Yrotation
            JOINT LeftToeBase
            {
              OFFSET 0 16.1857 0
              CHANNELS 3 Zrotation Xrotation Yrotation
              End Site
              {
                OFFSET -0.0307459 7.83862 -0.903522
              }
            }
          }
        }
      }
    }
  }
}
MOTION
Frames: 4
Frame Time: 0.00208333
54.8103 96.7925 15.184 2.77942 -0.771137 39.8662 0.0114988 -1.21481 0.931961 0.0335888 1.5737 1.86223 0.0112764 3.21842 1.86278 -3.21285 -2.53049 6.74499 -1.12257 5.56842 6.37479 38.5958 -9.07014 -5.28523 -119.792 46.2054 -119.93 -1.37426e-005 4.14052e-006 1.6791e-006 -6.52222 35.6057 1.38753 3.14959e-006 1.87007e-006 -3.00054 8.02939 -4.95143 0.697667 -57.8203 -20.6277 13.1636 -106.218 22.5855 -9.15914 -1.21241e-006 1.28379e-006 2.69228e-006 -7.56926 0.057849 1.24345 2.83376e-005 -4.73988e-006 3.0448 -8.02912 -4.95144 -0.69766 170.43 -2.06811 6.90841 180 7.01543e-015 178.906 177.128 21.7685 179.894 8.9416e-007 -3.52444e-006 0.523389 -22.711 72.279 23.935 7.92784 29.7026 2.41817 -178.795 3.99858 2.53117 4.5067e-006 -1.99009e-005 -0.971321 -1.20722 -5.72771 0.180509 4.59742e-006 -6.80646e-007 -0.0322354 17.9222 67.6067 -19.2152 -8.13691 25.2388 3.48254 
54.8295 96.7944 15.1995 2.77375 -0.77096 39.9342 0.00188291 -1.21065 0.935607 0.0143317 1.58189 1.87056 -0.00809613 3.2266 1.87144 -3.22412 -2.68173 6.71986 -1.02865 5.69902 6.35881 38.3042 -9.1249 -5.32945 -119.661 46.0461 -120.485 -1.37426e-005 4.14052e-006 1.6791e-006 -6.49343 34.7129 1.33307 3.14959e-006 1.87007e-006 -3.00054 8.02939 -4.95143 0.697667 -57.8878 -20.681 13.1901 -106.19 22.635 -9.09389 -1.21241e-006 1.28379e-006 2.69228e-006 -7.59615 0.0578536 1.23559 2.83376e-005 -4.73988e-006 3.04373 -8.02912 -4.95144 -0.69766 170.413 -2.035 6.94126 180 7.01543e-015 178.906 177.093 21.8465 179.9 8.9416e-007 -3.52444e-006 0.521638 -22.6774 72.2503 23.8985 7.92374 29.7621 2.43347 -178.798 3.99674 2.53672 4.5067e-006 -1.99009e-005 -0.971475 -1.20102 -5.72959 0.180953 4.59742e-006 -6.80646e-007 -0.0322367 17.9221 67.6036 -19.2127 -8.13691 25.2388 3.48254 
54.8521 96.7969 15.2166 2.76764 -0.768724 40.0037 -0.00788149 -1.20683 0.939405 -0.00521551 1.58939 1.87921 -0.027763 3.2341 1.88043 -3.23503 -2.84078 6.69366 -0.932721 5.83815 6.34203 38.0168 -9.18047 -5.37539 -119.549 45.8923 -121.083 -1.37426e-005 4.14052e-006 1.6791e-006 -6.4298 33.7959 1.25953 3.14959e-006 1.87007e-006 -3.00054 8.02939 -4.95143 0.697667 -57.9601 -20.7355 13.2167 -106.159 22.6843 -9.02946 -1.21241e-006 1.28379e-006 2.69228e-006 -7.62309 0.0577899 1.22735 2.83376e-005 -4.73988e-006 3.04257 -8.02912 -4.95144 -0.69766 170.394 -1.99884 6.97491 180 7.01543e-015 178.906 177.058 21.9271 179.907 8.9416e-007 -3.52444e-006 0.52 -22.6453 72.2227 23.8634 7.91967 29.8254 2.44606 -178.802 3.99752 2.54317 4.5067e-006 -1.99009e-005 -0.971624 -1.19476 -5.73229 0.181389 4.59742e-006 -6.80646e-007 -0.032236 17.9212 67.6004 -19.2102 -8.13691 25.2388 3.48254 
54.8704 96.7951 15.2304 2.76109 -0.76475 40.0747 -0.017779 -1.2033 0.943323 -0.0250235 1.59632 1.88812 -0.0476941 3.24102 1.88968 -3.2461 -3.00639 6.66646 -0.834598 5.98423 6.32442 37.7333 -9.23627 -5.4224 -119.455 45.7416 -121.715 -1.37426e-005 4.14052e-006 1.6791e-006 -6.33761 32.8611 1.17056 3.14959e-006 1.87007e-006 -3.00054 8.02939 -4.95143 0.697667 -58.0367 -20.7907 13.243 -106.127 22.7334 -8.96572 -1.21241e-006 1.28379e-006 2.69228e-006 -7.65012 0.057684 1.21876 2.83376e-005 -4.73988e-006 3.04132 -8.02912 -4.95144 -0.69766 170.374 -1.96003 7.00919 180 7.01543e-015 178.906 177.021 22.0101 179.914 8.9416e-007 -3.52444e-006 0.518457 -22.6142 72.1959 23.8295 7.91562 29.8924 2.45609 -178.807 4.00067 2.55033 4.5067e-006 -1.99009e-005 -0.971768 -1.18842 -5.73577 0.181821 4.59742e-006 -6.80646e-007 -0.0322321 17.9195 67.5972 -19.2077 -8.13691 25.2388 3.48254 
